# xmcd
#
# Track frame offsets: 
#        150
#        12045
#        25852
#        39090
#        52590
#        64025
#        78255
#        91152
#        103532
#        117305
#        133077
#        147112
#        164605
#        179160
#        195562
#
# Disc length: 2767 seconds
#
# Revision: 6
# Processed by: cddbd v1.5.2PL0 Copyright (c) Steve Scherf et al.
# Submitted via: ExactAudioCopy v0.99pb5
#
DISCID=b90acd0f
DTITLE=Various Artist - Classic Country Vol. 5 1975-1979 Disc 2
DYEAR=1998
DGENRE=Country
TTITLE0=Johnny Paycheck - Take This Job And Shove It
TTITLE1=Waylon Jennings And Willie Nelson - Good Hearted Woman
TTITLE2=Crystal Gayle - Talking In Your Sleep
TTITLE3=Glen Campbell - Southern Nights
TTITLE4=Dave And Sugar - Golden Tears
TTITLE5=Don Williams - Tulsa Time
TTITLE6=Eddie Rabbitt - Every Which Way But Loose
TTITLE7=Freddy Fender - Wasted Days And Wasted Nights
TTITLE8=George Jones With Tammy Wynette - Golden Ring
TTITLE9=Oak Ridge Boys - Sail Away
TTITLE10=Loretta Lynn - She's Got You
TTITLE11=Emmylou Harris - Together Again
TTITLE12=Charley Pride - Burgers And Fries
TTITLE13=Ronnie Milsap - It Was Almost Like A Song
TTITLE14=Charlie Rich - Rollin' With The Flow
EXTD=
EXTT0=
EXTT1=
EXTT2=
EXTT3=
EXTT4=
EXTT5=
EXTT6=
EXTT7=
EXTT8=
EXTT9=
EXTT10=
EXTT11=
EXTT12=
EXTT13=
EXTT14=
PLAYORDER=
